<?xml version="1.0" standalone="no"?>
<!DOCTYPE svg PUBLIC "-//W3C//DTD SVG 20010904//EN"
 "http://www.w3.org/TR/2001/REC-SVG-20010904/DTD/svg10.dtd">
<svg version="1.0" xmlns="http://www.w3.org/2000/svg"
 width="512.000000pt" height="512.000000pt" viewBox="0 0 512.000000 512.000000"
 preserveAspectRatio="xMidYMid meet">

<g transform="translate(0.000000,512.000000) scale(0.100000,-0.100000)"
fill="#000000" stroke="none">
<path d="M1109 4784 c-192 -34 -361 -124 -505 -268 -198 -198 -295 -446 -281
-721 20 -400 274 -734 661 -869 13 -4 17 -12 12 -29 -3 -12 -13 -76 -22 -142
-45 -337 28 -699 202 -999 194 -334 517 -596 881 -715 246 -80 528 -101 772
-57 46 9 87 13 91 11 4 -3 11 -17 15 -32 11 -45 84 -184 131 -249 94 -132 267
-265 425 -328 215 -84 459 -86 682 -6 251 91 476 316 567 567 84 233 77 486
-19 712 -95 223 -301 424 -526 512 -33 12 -63 26 -67 29 -4 3 0 46 9 95 23
124 23 416 0 540 -89 477 -365 872 -773 1109 -301 175 -662 247 -1004 202 -58
-8 -118 -18 -133 -21 -24 -6 -29 -4 -34 15 -12 45 -96 206 -138 265 -61 85
-178 194 -275 253 -196 121 -444 168 -671 126z m286 -319 c125 -22 232 -80
331 -179 61 -61 90 -99 117 -156 57 -119 60 -107 -56 -172 -266 -147 -478
-359 -625 -625 -65 -116 -53 -113 -172 -56 -109 53 -225 170 -280 284 -51 108
-74 217 -65 323 22 292 235 530 520 581 92 17 134 17 230 0z m1313 -635 c473
-60 870 -366 1041 -805 63 -160 85 -281 84 -470 0 -129 -4 -180 -22 -260 -113
-502 -489 -876 -991 -986 -82 -18 -136 -23 -250 -23 -166 -1 -252 12 -400 60
-204 66 -354 157 -510 314 -251 250 -374 546 -374 900 0 157 16 262 60 397
185 572 770 947 1362 873z m1422 -1987 c110 -53 223 -168 277 -283 64 -134 82
-240 63 -366 -38 -249 -196 -439 -431 -518 -158 -53 -320 -42 -478 34 -114 55
-231 171 -284 280 -57 119 -60 107 56 172 265 146 479 360 625 625 65 116 53
113 172 56z"/>
<path d="M2400 3427 l0 -93 -56 -27 c-81 -40 -167 -126 -208 -209 -115 -228
-45 -487 169 -624 66 -42 134 -64 225 -73 89 -9 134 -30 160 -74 30 -49 35
-92 15 -142 -54 -142 -252 -133 -296 13 l-12 42 -159 0 -158 0 0 -33 c0 -43
26 -129 57 -191 37 -72 124 -159 199 -198 l64 -33 0 -92 0 -93 160 0 160 0 0
93 0 93 56 27 c81 40 167 126 208 209 101 200 63 416 -101 572 -76 73 -202
125 -303 126 -127 1 -207 106 -165 215 54 142 252 133 296 -13 l12 -42 159 0
158 0 0 28 c0 43 -27 137 -56 194 -38 74 -124 161 -200 200 l-64 33 0 93 0 92
-160 0 -160 0 0 -93z"/>
<path d="M4155 4640 l-110 -110 105 -105 105 -105 -368 0 -367 0 0 -160 0
-160 367 0 368 0 -103 -103 -102 -102 113 -113 112 -112 257 257 c356 358 356
308 0 666 -141 141 -259 257 -262 257 -3 0 -55 -49 -115 -110z"/>
<path d="M588 1293 c-356 -358 -356 -308 0 -666 l257 -257 112 112 113 113
-102 102 -103 103 368 0 367 0 0 160 0 160 -367 0 -368 0 105 105 105 105
-110 110 c-60 61 -112 110 -115 110 -3 0 -121 -116 -262 -257z"/>
</g>
</svg>
